<mxfile host="app.diagrams.net" agent="Mozilla/5.0 (Windows NT 10.0; Win64; x64) AppleWebKit/537.36 (KHTML, like Gecko) Chrome/128.0.0.0 YaBrowser/24.10.0.0 Safari/537.36" version="24.8.6">
  <diagram name="Страница — 1" id="cuK969YsJ3sIkp6YjkXu">
    <mxGraphModel dx="4151" dy="1644" grid="1" gridSize="10" guides="1" tooltips="1" connect="1" arrows="1" fold="1" page="1" pageScale="1" pageWidth="2339" pageHeight="3300" math="0" shadow="0">
      <root>
        <mxCell id="0" />
        <mxCell id="1" parent="0" />
        <mxCell id="hCcMSXCXlavhn7JNe_2B-1" value="Основная база учета" style="swimlane;html=1;childLayout=stackLayout;resizeParent=1;resizeParentMax=0;horizontal=0;startSize=20;horizontalStack=0;whiteSpace=wrap;" vertex="1" parent="1">
          <mxGeometry x="40" y="50" width="3280" height="410" as="geometry" />
        </mxCell>
        <mxCell id="hCcMSXCXlavhn7JNe_2B-2" value="Администратор" style="swimlane;html=1;startSize=20;horizontal=0;" vertex="1" parent="hCcMSXCXlavhn7JNe_2B-1">
          <mxGeometry x="20" width="3260" height="160" as="geometry" />
        </mxCell>
        <mxCell id="hCcMSXCXlavhn7JNe_2B-11" value="" style="edgeStyle=orthogonalEdgeStyle;rounded=0;orthogonalLoop=1;jettySize=auto;html=1;entryX=0;entryY=0.5;entryDx=0;entryDy=0;" edge="1" parent="hCcMSXCXlavhn7JNe_2B-2" source="hCcMSXCXlavhn7JNe_2B-9" target="hCcMSXCXlavhn7JNe_2B-12">
          <mxGeometry relative="1" as="geometry">
            <mxPoint x="122.5" y="52.5" as="targetPoint" />
          </mxGeometry>
        </mxCell>
        <mxCell id="hCcMSXCXlavhn7JNe_2B-9" value="" style="points=[[0.145,0.145,0],[0.5,0,0],[0.855,0.145,0],[1,0.5,0],[0.855,0.855,0],[0.5,1,0],[0.145,0.855,0],[0,0.5,0]];shape=mxgraph.bpmn.event;html=1;verticalLabelPosition=bottom;labelBackgroundColor=#ffffff;verticalAlign=top;align=center;perimeter=ellipsePerimeter;outlineConnect=0;aspect=fixed;outline=standard;symbol=general;" vertex="1" parent="hCcMSXCXlavhn7JNe_2B-2">
          <mxGeometry x="50" y="35" width="35" height="35" as="geometry" />
        </mxCell>
        <mxCell id="hCcMSXCXlavhn7JNe_2B-12" value="Загрузка при помощи обработки&lt;div&gt;новых подарочных сертификатов&lt;/div&gt;" style="shape=parallelogram;perimeter=parallelogramPerimeter;whiteSpace=wrap;html=1;fixedSize=1;" vertex="1" parent="hCcMSXCXlavhn7JNe_2B-2">
          <mxGeometry x="130" y="14" width="170" height="77" as="geometry" />
        </mxCell>
        <mxCell id="hCcMSXCXlavhn7JNe_2B-15" value="" style="points=[[0.25,0.25,0],[0.5,0,0],[0.75,0.25,0],[1,0.5,0],[0.75,0.75,0],[0.5,1,0],[0.25,0.75,0],[0,0.5,0]];shape=mxgraph.bpmn.gateway2;html=1;verticalLabelPosition=bottom;labelBackgroundColor=#ffffff;verticalAlign=top;align=center;perimeter=rhombusPerimeter;outlineConnect=0;outline=none;symbol=none;gwType=parallel;" vertex="1" parent="hCcMSXCXlavhn7JNe_2B-2">
          <mxGeometry x="400" y="27.5" width="50" height="50" as="geometry" />
        </mxCell>
        <mxCell id="hCcMSXCXlavhn7JNe_2B-16" value="" style="endArrow=classic;html=1;rounded=0;exitX=1;exitY=0.5;exitDx=0;exitDy=0;entryX=0;entryY=0.5;entryDx=0;entryDy=0;entryPerimeter=0;" edge="1" parent="hCcMSXCXlavhn7JNe_2B-2" source="hCcMSXCXlavhn7JNe_2B-12" target="hCcMSXCXlavhn7JNe_2B-15">
          <mxGeometry width="50" height="50" relative="1" as="geometry">
            <mxPoint x="590" y="130" as="sourcePoint" />
            <mxPoint x="640" y="80" as="targetPoint" />
          </mxGeometry>
        </mxCell>
        <mxCell id="hCcMSXCXlavhn7JNe_2B-17" value="Выгрузка сертификатов в Базу продажи" style="shape=process;whiteSpace=wrap;html=1;backgroundOutline=1;" vertex="1" parent="hCcMSXCXlavhn7JNe_2B-2">
          <mxGeometry x="540" y="22.5" width="120" height="60" as="geometry" />
        </mxCell>
        <mxCell id="hCcMSXCXlavhn7JNe_2B-18" value="" style="endArrow=classic;html=1;rounded=0;exitX=1;exitY=0.5;exitDx=0;exitDy=0;exitPerimeter=0;entryX=0;entryY=0.5;entryDx=0;entryDy=0;" edge="1" parent="hCcMSXCXlavhn7JNe_2B-2" source="hCcMSXCXlavhn7JNe_2B-15" target="hCcMSXCXlavhn7JNe_2B-17">
          <mxGeometry width="50" height="50" relative="1" as="geometry">
            <mxPoint x="630" y="260" as="sourcePoint" />
            <mxPoint x="680" y="210" as="targetPoint" />
          </mxGeometry>
        </mxCell>
        <mxCell id="hCcMSXCXlavhn7JNe_2B-3" value="Бухгалтер" style="swimlane;html=1;startSize=20;horizontal=0;" vertex="1" parent="hCcMSXCXlavhn7JNe_2B-1">
          <mxGeometry x="20" y="160" width="3260" height="250" as="geometry" />
        </mxCell>
        <mxCell id="hCcMSXCXlavhn7JNe_2B-87" style="edgeStyle=orthogonalEdgeStyle;rounded=0;orthogonalLoop=1;jettySize=auto;html=1;exitX=1;exitY=0.25;exitDx=0;exitDy=0;entryX=0;entryY=0.409;entryDx=0;entryDy=0;entryPerimeter=0;" edge="1" parent="hCcMSXCXlavhn7JNe_2B-3" source="hCcMSXCXlavhn7JNe_2B-13" target="hCcMSXCXlavhn7JNe_2B-88">
          <mxGeometry relative="1" as="geometry">
            <mxPoint x="650" y="134.57142857142867" as="targetPoint" />
          </mxGeometry>
        </mxCell>
        <mxCell id="hCcMSXCXlavhn7JNe_2B-13" value="Принятие к учету нового набора сертификатов&lt;div&gt;(документ &quot;Поступление сертификатов&quot;)&lt;/div&gt;" style="whiteSpace=wrap;html=1;" vertex="1" parent="hCcMSXCXlavhn7JNe_2B-3">
          <mxGeometry x="362.5" y="80" width="125" height="145" as="geometry" />
        </mxCell>
        <mxCell id="hCcMSXCXlavhn7JNe_2B-31" value="Загрузка нового документа &quot;Реализация сертификата&quot;" style="whiteSpace=wrap;html=1;verticalAlign=top;labelBackgroundColor=#ffffff;dashed=1;" vertex="1" parent="hCcMSXCXlavhn7JNe_2B-3">
          <mxGeometry x="972.5" y="130" width="120" height="70" as="geometry" />
        </mxCell>
        <mxCell id="hCcMSXCXlavhn7JNe_2B-33" value="Формирование новых документов&lt;div&gt;&quot;Реализация сертификатов&quot;&lt;/div&gt;" style="shape=parallelogram;perimeter=parallelogramPerimeter;whiteSpace=wrap;html=1;fixedSize=1;" vertex="1" parent="hCcMSXCXlavhn7JNe_2B-3">
          <mxGeometry x="1200" y="122.5" width="180" height="85" as="geometry" />
        </mxCell>
        <mxCell id="hCcMSXCXlavhn7JNe_2B-34" style="edgeStyle=orthogonalEdgeStyle;rounded=0;orthogonalLoop=1;jettySize=auto;html=1;exitX=1;exitY=0.5;exitDx=0;exitDy=0;entryX=0;entryY=0.5;entryDx=0;entryDy=0;" edge="1" parent="hCcMSXCXlavhn7JNe_2B-3" source="hCcMSXCXlavhn7JNe_2B-31" target="hCcMSXCXlavhn7JNe_2B-33">
          <mxGeometry relative="1" as="geometry" />
        </mxCell>
        <mxCell id="hCcMSXCXlavhn7JNe_2B-80" value="" style="edgeStyle=orthogonalEdgeStyle;rounded=0;orthogonalLoop=1;jettySize=auto;html=1;entryX=0;entryY=0.5;entryDx=0;entryDy=0;" edge="1" parent="hCcMSXCXlavhn7JNe_2B-3" source="hCcMSXCXlavhn7JNe_2B-75" target="hCcMSXCXlavhn7JNe_2B-81">
          <mxGeometry relative="1" as="geometry">
            <mxPoint x="2580" y="172.5" as="targetPoint" />
          </mxGeometry>
        </mxCell>
        <mxCell id="hCcMSXCXlavhn7JNe_2B-75" value="Загрузка новых записей регистра накопления РАСХОД &quot;Учет подарочных сертификатов&quot;" style="whiteSpace=wrap;html=1;verticalAlign=top;labelBackgroundColor=#ffffff;dashed=1;" vertex="1" parent="hCcMSXCXlavhn7JNe_2B-3">
          <mxGeometry x="2215" y="142.5" width="230" height="60" as="geometry" />
        </mxCell>
        <mxCell id="hCcMSXCXlavhn7JNe_2B-83" value="" style="edgeStyle=orthogonalEdgeStyle;rounded=0;orthogonalLoop=1;jettySize=auto;html=1;entryX=0;entryY=0.5;entryDx=0;entryDy=0;entryPerimeter=0;" edge="1" parent="hCcMSXCXlavhn7JNe_2B-3" source="hCcMSXCXlavhn7JNe_2B-81" target="hCcMSXCXlavhn7JNe_2B-84">
          <mxGeometry relative="1" as="geometry">
            <mxPoint x="2915" y="172.5" as="targetPoint" />
          </mxGeometry>
        </mxCell>
        <mxCell id="hCcMSXCXlavhn7JNe_2B-81" value="Формирование регламентным заданием документов &quot;Списание сертификатов&quot;" style="shape=parallelogram;perimeter=parallelogramPerimeter;whiteSpace=wrap;html=1;fixedSize=1;" vertex="1" parent="hCcMSXCXlavhn7JNe_2B-3">
          <mxGeometry x="2580" y="147.5" width="210" height="50" as="geometry" />
        </mxCell>
        <mxCell id="hCcMSXCXlavhn7JNe_2B-84" value="" style="points=[[0.145,0.145,0],[0.5,0,0],[0.855,0.145,0],[1,0.5,0],[0.855,0.855,0],[0.5,1,0],[0.145,0.855,0],[0,0.5,0]];shape=mxgraph.bpmn.event;html=1;verticalLabelPosition=bottom;labelBackgroundColor=#ffffff;verticalAlign=top;align=center;perimeter=ellipsePerimeter;outlineConnect=0;aspect=fixed;outline=end;symbol=terminate2;" vertex="1" parent="hCcMSXCXlavhn7JNe_2B-3">
          <mxGeometry x="2860" y="147.5" width="50" height="50" as="geometry" />
        </mxCell>
        <mxCell id="hCcMSXCXlavhn7JNe_2B-88" value="Справочник &quot;Подарочные сертификаты&quot; Реквизит &quot;Действующий&quot; = ЛОЖЬ(для новых принятых к учету)" style="whiteSpace=wrap;html=1;dashed=1;" vertex="1" parent="hCcMSXCXlavhn7JNe_2B-3">
          <mxGeometry x="650" y="92.5" width="200" height="55" as="geometry" />
        </mxCell>
        <mxCell id="hCcMSXCXlavhn7JNe_2B-89" value="" style="edgeStyle=orthogonalEdgeStyle;rounded=0;orthogonalLoop=1;jettySize=auto;html=1;dashed=1;exitX=1;exitY=0.5;exitDx=0;exitDy=0;" edge="1" parent="hCcMSXCXlavhn7JNe_2B-3" target="hCcMSXCXlavhn7JNe_2B-90" source="hCcMSXCXlavhn7JNe_2B-33">
          <mxGeometry relative="1" as="geometry">
            <mxPoint x="1430" y="69" as="sourcePoint" />
          </mxGeometry>
        </mxCell>
        <mxCell id="hCcMSXCXlavhn7JNe_2B-90" value="Формирование движений в регистре накоплений ПРИХОД &quot;Учет подарочных сертификатов&quot;" style="whiteSpace=wrap;html=1;dashed=1;" vertex="1" parent="hCcMSXCXlavhn7JNe_2B-3">
          <mxGeometry x="1510" y="137.5" width="200" height="55" as="geometry" />
        </mxCell>
        <mxCell id="hCcMSXCXlavhn7JNe_2B-14" value="" style="edgeStyle=orthogonalEdgeStyle;rounded=0;orthogonalLoop=1;jettySize=auto;html=1;exitX=0.5;exitY=1;exitDx=0;exitDy=0;exitPerimeter=0;" edge="1" parent="hCcMSXCXlavhn7JNe_2B-1" source="hCcMSXCXlavhn7JNe_2B-15" target="hCcMSXCXlavhn7JNe_2B-13">
          <mxGeometry relative="1" as="geometry">
            <mxPoint x="370" y="110" as="sourcePoint" />
          </mxGeometry>
        </mxCell>
        <mxCell id="hCcMSXCXlavhn7JNe_2B-5" value="База продажи" style="swimlane;html=1;childLayout=stackLayout;resizeParent=1;resizeParentMax=0;horizontal=0;startSize=20;horizontalStack=0;whiteSpace=wrap;" vertex="1" parent="1">
          <mxGeometry x="40" y="800" width="3280" height="740" as="geometry" />
        </mxCell>
        <mxCell id="hCcMSXCXlavhn7JNe_2B-6" value="Администратор" style="swimlane;html=1;startSize=20;horizontal=0;" vertex="1" parent="hCcMSXCXlavhn7JNe_2B-5">
          <mxGeometry x="20" width="3260" height="160" as="geometry" />
        </mxCell>
        <mxCell id="hCcMSXCXlavhn7JNe_2B-70" value="" style="edgeStyle=orthogonalEdgeStyle;rounded=0;orthogonalLoop=1;jettySize=auto;html=1;" edge="1" parent="hCcMSXCXlavhn7JNe_2B-6" source="hCcMSXCXlavhn7JNe_2B-19" target="hCcMSXCXlavhn7JNe_2B-69">
          <mxGeometry relative="1" as="geometry" />
        </mxCell>
        <mxCell id="hCcMSXCXlavhn7JNe_2B-19" value="Загрузка сертификатов в 1С:Розница" style="shape=process;whiteSpace=wrap;html=1;backgroundOutline=1;" vertex="1" parent="hCcMSXCXlavhn7JNe_2B-6">
          <mxGeometry x="540" y="40" width="120" height="60" as="geometry" />
        </mxCell>
        <mxCell id="hCcMSXCXlavhn7JNe_2B-69" value="Создание новых элементов справочника &quot;Подарочные сертификаты&quot;" style="whiteSpace=wrap;html=1;" vertex="1" parent="hCcMSXCXlavhn7JNe_2B-6">
          <mxGeometry x="740" y="30" width="180" height="80" as="geometry" />
        </mxCell>
        <mxCell id="hCcMSXCXlavhn7JNe_2B-7" value="Продавец" style="swimlane;html=1;startSize=20;horizontal=0;" vertex="1" parent="hCcMSXCXlavhn7JNe_2B-5">
          <mxGeometry x="20" y="160" width="3260" height="350" as="geometry" />
        </mxCell>
        <mxCell id="hCcMSXCXlavhn7JNe_2B-28" value="" style="edgeStyle=orthogonalEdgeStyle;rounded=0;orthogonalLoop=1;jettySize=auto;html=1;" edge="1" parent="hCcMSXCXlavhn7JNe_2B-7" source="hCcMSXCXlavhn7JNe_2B-26" target="hCcMSXCXlavhn7JNe_2B-27">
          <mxGeometry relative="1" as="geometry" />
        </mxCell>
        <mxCell id="hCcMSXCXlavhn7JNe_2B-26" value="" style="points=[[0.145,0.145,0],[0.5,0,0],[0.855,0.145,0],[1,0.5,0],[0.855,0.855,0],[0.5,1,0],[0.145,0.855,0],[0,0.5,0]];shape=mxgraph.bpmn.event;html=1;verticalLabelPosition=bottom;labelBackgroundColor=#ffffff;verticalAlign=top;align=center;perimeter=ellipsePerimeter;outlineConnect=0;aspect=fixed;outline=standard;symbol=general;" vertex="1" parent="hCcMSXCXlavhn7JNe_2B-7">
          <mxGeometry x="580" y="42.5" width="35" height="35" as="geometry" />
        </mxCell>
        <mxCell id="hCcMSXCXlavhn7JNe_2B-36" value="" style="edgeStyle=orthogonalEdgeStyle;rounded=0;orthogonalLoop=1;jettySize=auto;html=1;" edge="1" parent="hCcMSXCXlavhn7JNe_2B-7" source="hCcMSXCXlavhn7JNe_2B-27" target="hCcMSXCXlavhn7JNe_2B-35">
          <mxGeometry relative="1" as="geometry" />
        </mxCell>
        <mxCell id="hCcMSXCXlavhn7JNe_2B-35" value="Формирование документа &quot;Реализация сертификата&quot;" style="whiteSpace=wrap;html=1;verticalAlign=top;labelBackgroundColor=#ffffff;" vertex="1" parent="hCcMSXCXlavhn7JNe_2B-7">
          <mxGeometry x="972.5" y="20" width="120" height="80" as="geometry" />
        </mxCell>
        <mxCell id="hCcMSXCXlavhn7JNe_2B-27" value="Оформление продажи сертификата" style="whiteSpace=wrap;html=1;verticalAlign=top;labelBackgroundColor=#ffffff;" vertex="1" parent="hCcMSXCXlavhn7JNe_2B-7">
          <mxGeometry x="772.5" y="30" width="120" height="60" as="geometry" />
        </mxCell>
        <mxCell id="hCcMSXCXlavhn7JNe_2B-57" style="edgeStyle=orthogonalEdgeStyle;rounded=0;orthogonalLoop=1;jettySize=auto;html=1;exitX=0.5;exitY=1;exitDx=0;exitDy=0;exitPerimeter=0;" edge="1" parent="hCcMSXCXlavhn7JNe_2B-7" source="hCcMSXCXlavhn7JNe_2B-53" target="hCcMSXCXlavhn7JNe_2B-56">
          <mxGeometry relative="1" as="geometry" />
        </mxCell>
        <mxCell id="hCcMSXCXlavhn7JNe_2B-58" value="НЕТ" style="edgeLabel;html=1;align=center;verticalAlign=middle;resizable=0;points=[];" vertex="1" connectable="0" parent="hCcMSXCXlavhn7JNe_2B-57">
          <mxGeometry x="-0.0545" y="2" relative="1" as="geometry">
            <mxPoint as="offset" />
          </mxGeometry>
        </mxCell>
        <mxCell id="hCcMSXCXlavhn7JNe_2B-62" style="edgeStyle=orthogonalEdgeStyle;rounded=0;orthogonalLoop=1;jettySize=auto;html=1;exitX=1;exitY=0.5;exitDx=0;exitDy=0;exitPerimeter=0;entryX=0;entryY=0.5;entryDx=0;entryDy=0;" edge="1" parent="hCcMSXCXlavhn7JNe_2B-7" source="hCcMSXCXlavhn7JNe_2B-53" target="hCcMSXCXlavhn7JNe_2B-63">
          <mxGeometry relative="1" as="geometry">
            <mxPoint x="2050" y="60" as="targetPoint" />
          </mxGeometry>
        </mxCell>
        <mxCell id="hCcMSXCXlavhn7JNe_2B-64" value="ДА" style="edgeLabel;html=1;align=center;verticalAlign=middle;resizable=0;points=[];" vertex="1" connectable="0" parent="hCcMSXCXlavhn7JNe_2B-62">
          <mxGeometry x="-0.12" y="-2" relative="1" as="geometry">
            <mxPoint as="offset" />
          </mxGeometry>
        </mxCell>
        <mxCell id="hCcMSXCXlavhn7JNe_2B-53" value="" style="points=[[0.25,0.25,0],[0.5,0,0],[0.75,0.25,0],[1,0.5,0],[0.75,0.75,0],[0.5,1,0],[0.25,0.75,0],[0,0.5,0]];shape=mxgraph.bpmn.gateway2;html=1;verticalLabelPosition=bottom;labelBackgroundColor=#ffffff;verticalAlign=top;align=center;perimeter=rhombusPerimeter;outlineConnect=0;outline=none;symbol=none;gwType=exclusive;" vertex="1" parent="hCcMSXCXlavhn7JNe_2B-7">
          <mxGeometry x="1920" y="105" width="50" height="50" as="geometry" />
        </mxCell>
        <mxCell id="hCcMSXCXlavhn7JNe_2B-54" style="edgeStyle=orthogonalEdgeStyle;rounded=0;orthogonalLoop=1;jettySize=auto;html=1;entryX=0;entryY=0.5;entryDx=0;entryDy=0;entryPerimeter=0;exitX=1;exitY=0.5;exitDx=0;exitDy=0;" edge="1" parent="hCcMSXCXlavhn7JNe_2B-7" source="hCcMSXCXlavhn7JNe_2B-59" target="hCcMSXCXlavhn7JNe_2B-53">
          <mxGeometry relative="1" as="geometry">
            <mxPoint x="1570" y="60" as="sourcePoint" />
          </mxGeometry>
        </mxCell>
        <mxCell id="hCcMSXCXlavhn7JNe_2B-55" value="Сертификат действителен" style="edgeLabel;html=1;align=center;verticalAlign=middle;resizable=0;points=[];" vertex="1" connectable="0" parent="hCcMSXCXlavhn7JNe_2B-54">
          <mxGeometry x="-0.0545" y="-4" relative="1" as="geometry">
            <mxPoint as="offset" />
          </mxGeometry>
        </mxCell>
        <mxCell id="hCcMSXCXlavhn7JNe_2B-56" value="" style="points=[[0.145,0.145,0],[0.5,0,0],[0.855,0.145,0],[1,0.5,0],[0.855,0.855,0],[0.5,1,0],[0.145,0.855,0],[0,0.5,0]];shape=mxgraph.bpmn.event;html=1;verticalLabelPosition=bottom;labelBackgroundColor=#ffffff;verticalAlign=top;align=center;perimeter=ellipsePerimeter;outlineConnect=0;aspect=fixed;outline=end;symbol=terminate2;" vertex="1" parent="hCcMSXCXlavhn7JNe_2B-7">
          <mxGeometry x="1920" y="210" width="50" height="50" as="geometry" />
        </mxCell>
        <mxCell id="hCcMSXCXlavhn7JNe_2B-30" value="" style="edgeStyle=orthogonalEdgeStyle;rounded=0;orthogonalLoop=1;jettySize=auto;html=1;" edge="1" parent="hCcMSXCXlavhn7JNe_2B-7" source="hCcMSXCXlavhn7JNe_2B-27" target="hCcMSXCXlavhn7JNe_2B-29">
          <mxGeometry relative="1" as="geometry" />
        </mxCell>
        <mxCell id="hCcMSXCXlavhn7JNe_2B-59" value="Оформление продажи товара (указан сертификат)" style="whiteSpace=wrap;html=1;verticalAlign=top;labelBackgroundColor=#ffffff;" vertex="1" parent="hCcMSXCXlavhn7JNe_2B-7">
          <mxGeometry x="1535" y="100" width="120" height="60" as="geometry" />
        </mxCell>
        <mxCell id="hCcMSXCXlavhn7JNe_2B-72" value="" style="edgeStyle=orthogonalEdgeStyle;rounded=0;orthogonalLoop=1;jettySize=auto;html=1;" edge="1" parent="hCcMSXCXlavhn7JNe_2B-7" source="hCcMSXCXlavhn7JNe_2B-63" target="hCcMSXCXlavhn7JNe_2B-71">
          <mxGeometry relative="1" as="geometry" />
        </mxCell>
        <mxCell id="hCcMSXCXlavhn7JNe_2B-63" value="Формирование документа &quot;Реализация товаров и услуг&quot;" style="whiteSpace=wrap;html=1;verticalAlign=top;labelBackgroundColor=#ffffff;" vertex="1" parent="hCcMSXCXlavhn7JNe_2B-7">
          <mxGeometry x="2070" y="90" width="120" height="80" as="geometry" />
        </mxCell>
        <mxCell id="hCcMSXCXlavhn7JNe_2B-71" value="Статус сертификата &quot;Действующий&quot; = ЛОЖЬ&lt;div&gt;&lt;br&gt;&lt;/div&gt;&lt;div&gt;Новая запись регистра сведений &quot;Подарочные сертификаты&quot;&lt;/div&gt;" style="whiteSpace=wrap;html=1;verticalAlign=top;labelBackgroundColor=#ffffff;" vertex="1" parent="hCcMSXCXlavhn7JNe_2B-7">
          <mxGeometry x="2270" y="55" width="120" height="150" as="geometry" />
        </mxCell>
        <mxCell id="hCcMSXCXlavhn7JNe_2B-73" value="" style="points=[[0.145,0.145,0],[0.5,0,0],[0.855,0.145,0],[1,0.5,0],[0.855,0.855,0],[0.5,1,0],[0.145,0.855,0],[0,0.5,0]];shape=mxgraph.bpmn.event;html=1;verticalLabelPosition=bottom;labelBackgroundColor=#ffffff;verticalAlign=top;align=center;perimeter=ellipsePerimeter;outlineConnect=0;aspect=fixed;outline=end;symbol=terminate2;" vertex="1" parent="hCcMSXCXlavhn7JNe_2B-7">
          <mxGeometry x="2440" y="105" width="50" height="50" as="geometry" />
        </mxCell>
        <mxCell id="hCcMSXCXlavhn7JNe_2B-74" style="edgeStyle=orthogonalEdgeStyle;rounded=0;orthogonalLoop=1;jettySize=auto;html=1;exitX=1;exitY=0.5;exitDx=0;exitDy=0;entryX=0;entryY=0.5;entryDx=0;entryDy=0;entryPerimeter=0;" edge="1" parent="hCcMSXCXlavhn7JNe_2B-7" source="hCcMSXCXlavhn7JNe_2B-71" target="hCcMSXCXlavhn7JNe_2B-73">
          <mxGeometry relative="1" as="geometry" />
        </mxCell>
        <mxCell id="hCcMSXCXlavhn7JNe_2B-8" value="Покупатель" style="swimlane;html=1;startSize=20;horizontal=0;" vertex="1" parent="hCcMSXCXlavhn7JNe_2B-5">
          <mxGeometry x="20" y="510" width="3260" height="230" as="geometry" />
        </mxCell>
        <mxCell id="hCcMSXCXlavhn7JNe_2B-38" value="" style="edgeStyle=orthogonalEdgeStyle;rounded=0;orthogonalLoop=1;jettySize=auto;html=1;dashed=1;" edge="1" parent="hCcMSXCXlavhn7JNe_2B-8" source="hCcMSXCXlavhn7JNe_2B-29" target="hCcMSXCXlavhn7JNe_2B-37">
          <mxGeometry relative="1" as="geometry" />
        </mxCell>
        <mxCell id="hCcMSXCXlavhn7JNe_2B-51" value="" style="edgeStyle=orthogonalEdgeStyle;rounded=0;orthogonalLoop=1;jettySize=auto;html=1;dashed=1;" edge="1" parent="hCcMSXCXlavhn7JNe_2B-8" source="hCcMSXCXlavhn7JNe_2B-29" target="hCcMSXCXlavhn7JNe_2B-50">
          <mxGeometry relative="1" as="geometry">
            <Array as="points">
              <mxPoint x="833" y="160" />
            </Array>
          </mxGeometry>
        </mxCell>
        <mxCell id="hCcMSXCXlavhn7JNe_2B-29" value="Сертификат приобретен" style="whiteSpace=wrap;html=1;verticalAlign=top;labelBackgroundColor=#ffffff;" vertex="1" parent="hCcMSXCXlavhn7JNe_2B-8">
          <mxGeometry x="772.5" y="30" width="120" height="60" as="geometry" />
        </mxCell>
        <mxCell id="hCcMSXCXlavhn7JNe_2B-39" style="edgeStyle=orthogonalEdgeStyle;rounded=0;orthogonalLoop=1;jettySize=auto;html=1;exitX=1;exitY=0.5;exitDx=0;exitDy=0;" edge="1" parent="hCcMSXCXlavhn7JNe_2B-8" source="hCcMSXCXlavhn7JNe_2B-37" target="hCcMSXCXlavhn7JNe_2B-25">
          <mxGeometry relative="1" as="geometry" />
        </mxCell>
        <mxCell id="hCcMSXCXlavhn7JNe_2B-40" value="Сертификат использован" style="edgeLabel;html=1;align=center;verticalAlign=middle;resizable=0;points=[];" vertex="1" connectable="0" parent="hCcMSXCXlavhn7JNe_2B-39">
          <mxGeometry x="-0.1059" y="1" relative="1" as="geometry">
            <mxPoint as="offset" />
          </mxGeometry>
        </mxCell>
        <mxCell id="hCcMSXCXlavhn7JNe_2B-37" value="Приобретение товаров в магазине с использованием сертификата&amp;nbsp;в качестве оплаты&amp;nbsp;" style="whiteSpace=wrap;html=1;verticalAlign=top;labelBackgroundColor=#ffffff;" vertex="1" parent="hCcMSXCXlavhn7JNe_2B-8">
          <mxGeometry x="1280" y="15" width="120" height="90" as="geometry" />
        </mxCell>
        <mxCell id="hCcMSXCXlavhn7JNe_2B-42" value="" style="edgeStyle=orthogonalEdgeStyle;rounded=0;orthogonalLoop=1;jettySize=auto;html=1;entryX=0;entryY=0.5;entryDx=0;entryDy=0;entryPerimeter=0;" edge="1" parent="hCcMSXCXlavhn7JNe_2B-8" source="hCcMSXCXlavhn7JNe_2B-25" target="hCcMSXCXlavhn7JNe_2B-44">
          <mxGeometry relative="1" as="geometry">
            <mxPoint x="1685" y="60" as="targetPoint" />
          </mxGeometry>
        </mxCell>
        <mxCell id="hCcMSXCXlavhn7JNe_2B-45" value="НЕТ" style="edgeLabel;html=1;align=center;verticalAlign=middle;resizable=0;points=[];" vertex="1" connectable="0" parent="hCcMSXCXlavhn7JNe_2B-42">
          <mxGeometry x="0.0889" relative="1" as="geometry">
            <mxPoint as="offset" />
          </mxGeometry>
        </mxCell>
        <mxCell id="hCcMSXCXlavhn7JNe_2B-25" value="" style="points=[[0.25,0.25,0],[0.5,0,0],[0.75,0.25,0],[1,0.5,0],[0.75,0.75,0],[0.5,1,0],[0.25,0.75,0],[0,0.5,0]];shape=mxgraph.bpmn.gateway2;html=1;verticalLabelPosition=bottom;labelBackgroundColor=#ffffff;verticalAlign=top;align=center;perimeter=rhombusPerimeter;outlineConnect=0;outline=none;symbol=none;gwType=exclusive;" vertex="1" parent="hCcMSXCXlavhn7JNe_2B-8">
          <mxGeometry x="1570" y="35" width="50" height="50" as="geometry" />
        </mxCell>
        <mxCell id="hCcMSXCXlavhn7JNe_2B-44" value="" style="points=[[0.145,0.145,0],[0.5,0,0],[0.855,0.145,0],[1,0.5,0],[0.855,0.855,0],[0.5,1,0],[0.145,0.855,0],[0,0.5,0]];shape=mxgraph.bpmn.event;html=1;verticalLabelPosition=bottom;labelBackgroundColor=#ffffff;verticalAlign=top;align=center;perimeter=ellipsePerimeter;outlineConnect=0;aspect=fixed;outline=end;symbol=terminate2;" vertex="1" parent="hCcMSXCXlavhn7JNe_2B-8">
          <mxGeometry x="1710" y="35" width="50" height="50" as="geometry" />
        </mxCell>
        <mxCell id="hCcMSXCXlavhn7JNe_2B-52" style="edgeStyle=orthogonalEdgeStyle;rounded=0;orthogonalLoop=1;jettySize=auto;html=1;exitX=1;exitY=0.5;exitDx=0;exitDy=0;entryX=0.5;entryY=1;entryDx=0;entryDy=0;dashed=1;" edge="1" parent="hCcMSXCXlavhn7JNe_2B-8" source="hCcMSXCXlavhn7JNe_2B-50" target="hCcMSXCXlavhn7JNe_2B-37">
          <mxGeometry relative="1" as="geometry" />
        </mxCell>
        <mxCell id="hCcMSXCXlavhn7JNe_2B-50" value="Статус сертификата &quot;Действующий&quot; = ИСТИНА" style="whiteSpace=wrap;html=1;verticalAlign=top;labelBackgroundColor=#ffffff;dashed=1;" vertex="1" parent="hCcMSXCXlavhn7JNe_2B-8">
          <mxGeometry x="1050" y="130" width="120" height="60" as="geometry" />
        </mxCell>
        <mxCell id="hCcMSXCXlavhn7JNe_2B-68" value="" style="edgeStyle=orthogonalEdgeStyle;rounded=0;orthogonalLoop=1;jettySize=auto;html=1;entryX=0.5;entryY=0;entryDx=0;entryDy=0;entryPerimeter=0;" edge="1" parent="hCcMSXCXlavhn7JNe_2B-8" source="hCcMSXCXlavhn7JNe_2B-65" target="hCcMSXCXlavhn7JNe_2B-67">
          <mxGeometry relative="1" as="geometry" />
        </mxCell>
        <mxCell id="hCcMSXCXlavhn7JNe_2B-65" value="Выдача товара и чека" style="whiteSpace=wrap;html=1;verticalAlign=top;labelBackgroundColor=#ffffff;" vertex="1" parent="hCcMSXCXlavhn7JNe_2B-8">
          <mxGeometry x="2070" y="15" width="120" height="45" as="geometry" />
        </mxCell>
        <mxCell id="hCcMSXCXlavhn7JNe_2B-67" value="" style="points=[[0.145,0.145,0],[0.5,0,0],[0.855,0.145,0],[1,0.5,0],[0.855,0.855,0],[0.5,1,0],[0.145,0.855,0],[0,0.5,0]];shape=mxgraph.bpmn.event;html=1;verticalLabelPosition=bottom;labelBackgroundColor=#ffffff;verticalAlign=top;align=center;perimeter=ellipsePerimeter;outlineConnect=0;aspect=fixed;outline=end;symbol=terminate2;" vertex="1" parent="hCcMSXCXlavhn7JNe_2B-8">
          <mxGeometry x="2105" y="105" width="50" height="50" as="geometry" />
        </mxCell>
        <mxCell id="hCcMSXCXlavhn7JNe_2B-60" style="edgeStyle=orthogonalEdgeStyle;rounded=0;orthogonalLoop=1;jettySize=auto;html=1;exitX=0.5;exitY=0;exitDx=0;exitDy=0;exitPerimeter=0;entryX=0.5;entryY=1;entryDx=0;entryDy=0;" edge="1" parent="hCcMSXCXlavhn7JNe_2B-5" source="hCcMSXCXlavhn7JNe_2B-25" target="hCcMSXCXlavhn7JNe_2B-59">
          <mxGeometry relative="1" as="geometry" />
        </mxCell>
        <mxCell id="hCcMSXCXlavhn7JNe_2B-61" value="ДА" style="edgeLabel;html=1;align=center;verticalAlign=middle;resizable=0;points=[];" vertex="1" connectable="0" parent="hCcMSXCXlavhn7JNe_2B-60">
          <mxGeometry x="0.2121" y="-1" relative="1" as="geometry">
            <mxPoint as="offset" />
          </mxGeometry>
        </mxCell>
        <mxCell id="hCcMSXCXlavhn7JNe_2B-66" value="" style="edgeStyle=orthogonalEdgeStyle;rounded=0;orthogonalLoop=1;jettySize=auto;html=1;" edge="1" parent="hCcMSXCXlavhn7JNe_2B-5" source="hCcMSXCXlavhn7JNe_2B-63" target="hCcMSXCXlavhn7JNe_2B-65">
          <mxGeometry relative="1" as="geometry" />
        </mxCell>
        <mxCell id="hCcMSXCXlavhn7JNe_2B-20" value="" style="endArrow=classic;html=1;rounded=0;exitX=0.5;exitY=1;exitDx=0;exitDy=0;entryX=0.5;entryY=0;entryDx=0;entryDy=0;dashed=1;shape=flexArrow;" edge="1" parent="1" source="hCcMSXCXlavhn7JNe_2B-17" target="hCcMSXCXlavhn7JNe_2B-19">
          <mxGeometry relative="1" as="geometry">
            <mxPoint x="580" y="470" as="sourcePoint" />
            <mxPoint x="740" y="470" as="targetPoint" />
          </mxGeometry>
        </mxCell>
        <mxCell id="hCcMSXCXlavhn7JNe_2B-32" value="" style="edgeStyle=orthogonalEdgeStyle;rounded=0;orthogonalLoop=1;jettySize=auto;html=1;dashed=1;shape=flexArrow;exitX=0.5;exitY=0;exitDx=0;exitDy=0;" edge="1" parent="1" source="hCcMSXCXlavhn7JNe_2B-35" target="hCcMSXCXlavhn7JNe_2B-31">
          <mxGeometry relative="1" as="geometry">
            <mxPoint x="1550" y="1012.5" as="sourcePoint" />
          </mxGeometry>
        </mxCell>
        <mxCell id="hCcMSXCXlavhn7JNe_2B-76" style="edgeStyle=orthogonalEdgeStyle;rounded=0;orthogonalLoop=1;jettySize=auto;html=1;exitX=0.5;exitY=0;exitDx=0;exitDy=0;shape=flexArrow;dashed=1;entryX=0.5;entryY=1;entryDx=0;entryDy=0;" edge="1" parent="1" source="hCcMSXCXlavhn7JNe_2B-71" target="hCcMSXCXlavhn7JNe_2B-75">
          <mxGeometry relative="1" as="geometry">
            <mxPoint x="2390" y="490" as="targetPoint" />
          </mxGeometry>
        </mxCell>
      </root>
    </mxGraphModel>
  </diagram>
</mxfile>
